# Blender v2.76 (sub 0) OBJ File: 'box.blend'
# www.blender.org
mtllib box.mtl
o Cube
v 1.000000 -1.000000 -1.000000
v 1.000000 -1.000000 1.000000
v -1.000000 -1.000000 1.000000
v -1.000000 -1.000000 -1.000000
v 1.000000 1.000000 -0.999999
v 0.999999 1.000000 1.000001
v -1.000000 1.000000 1.000000
v -1.000000 1.000000 -1.000000
vt 0.223307 -1.000000
vt -0.330078 -1.000000
vt -0.330078 0.000000
vt -0.330078 1.000000
vt 0.223307 -0.000000
vt 0.677732 1.005929
vt 0.124346 1.005929
vt 0.124346 0.005929
vt 0.223307 1.000000
vt 0.776693 1.000000
vt 0.677732 0.005929
vt 0.776693 0.000000
vn 0.000000 -1.000000 0.000000
vn 0.000000 1.000000 0.000000
vn 1.000000 0.000000 0.000000
vn -0.000000 0.000000 1.000000
vn -1.000000 -0.000000 -0.000000
vn 0.000000 0.000000 -1.000000
usemtl Material
s off
f 2/1/1 3/2/1 4/3/1
f 8/4/2 7/3/2 6/5/2
f 5/6/3 6/7/3 2/8/3
f 6/9/4 7/4/4 3/3/4
f 3/5/5 7/9/5 8/10/5
f 1/1/6 4/2/6 8/3/6
f 1/5/1 2/1/1 4/3/1
f 5/9/2 8/4/2 6/5/2
f 1/11/3 5/6/3 2/8/3
f 2/5/4 6/9/4 3/3/4
f 4/12/5 3/5/5 8/10/5
f 5/5/6 1/1/6 8/3/6
