# Blender v2.79 (sub 6) OBJ File: 'arena.blend'
# www.blender.org
mtllib arena.mtl
o Cube
v -1.491621 -0.214583 -32.365257
v 3.183649 -0.214583 -32.306877
v 2.487567 -0.214583 23.441032
v -2.187703 -0.214583 23.382645
v -1.491621 1.326208 -32.365269
v 3.183651 1.326208 -32.306862
v 2.487567 1.326208 23.441044
v -2.187703 1.326208 23.382652
vt 1.000000 0.000000
vt 0.000000 1.000000
vt 0.000000 0.000000
vt 1.000000 0.000000
vt 0.000000 1.000000
vt 0.000000 0.000000
vt 1.000000 0.000000
vt 0.000000 1.000000
vt 1.000000 0.000000
vt 0.000000 1.000000
vt 0.000000 0.000000
vt 1.000000 0.000000
vt 0.000000 0.000000
vt 1.000000 0.000000
vt 0.000000 1.000000
vt 1.000000 1.000000
vt 1.000000 1.000000
vt 1.000000 1.000000
vt 1.000000 1.000000
vt 1.000000 1.000000
vn 0.0000 -1.0000 0.0000
vn 0.0000 1.0000 -0.0000
vn 0.0125 -0.0000 -0.9999
vn 0.9999 -0.0000 0.0125
vn -0.0125 -0.0000 0.9999
vn -0.9999 -0.0000 -0.0125
usemtl Material
s off
f 2/1/1 4/2/1 1/3/1
f 8/4/2 6/5/2 5/6/2
f 5/7/3 2/8/3 1/3/3
f 6/9/4 3/10/4 2/11/4
f 7/12/5 4/2/5 3/13/5
f 1/14/6 8/15/6 5/6/6
f 2/1/1 3/16/1 4/2/1
f 8/4/2 7/17/2 6/5/2
f 5/7/3 6/18/3 2/8/3
f 6/9/4 7/17/4 3/10/4
f 7/12/5 8/19/5 4/2/5
f 1/14/6 4/20/6 8/15/6
