# Blender v2.76 (sub 0) OBJ File: 'untitled.blend'
# www.blender.org
mtllib esteban.mtl
o Cube
v 11.778457 -1.000000 -124.670135
v 11.778457 -1.000000 124.670143
v -11.778458 -1.000000 124.670120
v -11.778453 -1.000000 -124.670189
v 11.778462 1.000000 -124.670074
v 11.778449 1.000000 124.670219
v -11.778461 1.000000 124.670097
v -11.778456 1.000000 -124.670143
vn 0.000000 -1.000000 0.000000
vn 0.000000 1.000000 0.000000
vn 1.000000 0.000000 0.000000
vn -0.000000 0.000000 1.000000
vn -1.000000 -0.000000 -0.000000
vn 0.000000 0.000000 -1.000000
usemtl Material
s off
f 1//1 2//1 3//1
f 5//2 8//2 7//2
f 5//3 6//3 2//3
f 6//4 7//4 3//4
f 7//5 8//5 4//5
f 1//6 4//6 8//6
f 4//1 1//1 3//1
f 6//2 5//2 7//2
f 1//3 5//3 2//3
f 2//4 6//4 3//4
f 3//5 7//5 4//5
f 5//6 1//6 8//6
