# Blender v2.76 (sub 0) OBJ File: 'highway.blend'
# www.blender.org
mtllib highway.mtl
o Cube
v 11.778457 -1.000000 -124.670135
v 11.778457 -1.000000 124.670143
v -11.778458 -1.000000 124.670120
v -11.778453 -1.000000 -124.670189
v 11.778462 1.000000 -124.670074
v 11.778449 1.000000 124.670219
v -11.778461 1.000000 124.670097
v -11.778456 1.000000 -124.670143
vt 0.333333 0.669271
vt 0.666667 0.669271
vt 0.666667 1.002604
vt 0.666667 0.333333
vt 0.666667 0.666667
vt 0.333333 0.666667
vt 0.333333 0.333333
vt 0.333333 0.000000
vt 0.666667 0.000000
vt 0.000000 0.000000
vt 1.000000 0.000000
vt 0.000000 0.666667
vt 0.333333 1.002604
vt 0.000000 0.333333
vt 1.000000 0.333333
vn 0.000000 -1.000000 0.000000
vn 0.000000 1.000000 0.000000
vn 1.000000 0.000000 0.000000
vn -0.000000 0.000000 1.000000
vn -1.000000 -0.000000 -0.000000
vn 0.000000 0.000000 -1.000000
usemtl Material
s off
f 1/1/1 2/2/1 3/3/1
f 5/4/2 8/5/2 7/6/2
f 5/7/3 6/8/3 2/9/3
f 6/10/4 7/8/4 3/7/4
f 7/4/5 8/9/5 4/11/5
f 1/7/6 4/6/6 8/12/6
f 4/13/1 1/1/1 3/3/1
f 6/7/2 5/4/2 7/6/2
f 1/4/3 5/7/3 2/9/3
f 2/14/4 6/10/4 3/7/4
f 3/15/5 7/4/5 4/11/5
f 5/14/6 1/7/6 8/12/6
